<?xml version="1.0" encoding="UTF-8" standalone="no"?>
<!-- Created with Inkscape (http://www.inkscape.org/) -->

<svg
   xmlns:dc="http://purl.org/dc/elements/1.1/"
   xmlns:cc="http://creativecommons.org/ns#"
   xmlns:rdf="http://www.w3.org/1999/02/22-rdf-syntax-ns#"
   xmlns:svg="http://www.w3.org/2000/svg"
   xmlns="http://www.w3.org/2000/svg"
   xmlns:sodipodi="http://sodipodi.sourceforge.net/DTD/sodipodi-0.dtd"
   xmlns:inkscape="http://www.inkscape.org/namespaces/inkscape"
   width="210mm"
   height="297mm"
   viewBox="0 0 744.09448819 1052.3622047"
   id="svg2"
   version="1.1"
   inkscape:version="0.91 r13725"
   sodipodi:docname="alusorvr.svg">
  <defs
     id="defs4" />
  <sodipodi:namedview
     id="base"
     pagecolor="#ffffff"
     bordercolor="#666666"
     borderopacity="1.0"
     inkscape:pageopacity="0.0"
     inkscape:pageshadow="2"
     inkscape:zoom="0.98994949"
     inkscape:cx="306.84621"
     inkscape:cy="478.4344"
     inkscape:document-units="px"
     inkscape:current-layer="layer1"
     showgrid="false"
     inkscape:window-width="1366"
     inkscape:window-height="715"
     inkscape:window-x="-8"
     inkscape:window-y="-8"
     inkscape:window-maximized="1" />
  <metadata
     id="metadata7">
    <rdf:RDF>
      <cc:Work
         rdf:about="">
        <dc:format>image/svg+xml</dc:format>
        <dc:type
           rdf:resource="http://purl.org/dc/dcmitype/StillImage" />
        <dc:title></dc:title>
      </cc:Work>
    </rdf:RDF>
  </metadata>
  <g
     inkscape:label="Capa 1"
     inkscape:groupmode="layer"
     id="layer1">
    <path
       style="fill:#ff5252;fill-opacity:1"
       d="m 31.217646,429.0656 -3.603874,-4.1149 0,-85.65095 0,-85.65088 3.603874,-4.11487 3.603906,-4.11493 133.039628,0 c 133.7724,0 137.28263,0.14285 140.53231,5.69935 0.59332,1.01457 1.08885,40.83001 1.1012,88.47877 l 0.0227,86.63417 -3.86864,3.47461 c -3.73562,3.35506 -5.51512,3.47362 -51.75569,3.44885 -26.33788,-0.0183 -48.7237,-0.63204 -49.74624,-1.37306 -1.02254,-0.7411 -4.19751,-11.0882 -7.05552,-22.99355 -6.41175,-26.70922 -9.18153,-34.00411 -15.05274,-39.64493 -12.30609,-11.82322 -26.09046,-5.71328 -32.89833,14.5822 -1.23722,3.68812 -4.36846,15.38135 -6.95854,25.98486 -2.58996,10.60347 -5.76795,20.22208 -7.06214,21.37464 -1.77509,1.58084 -14.38132,2.09552 -51.325418,2.09552 l -48.972385,0 z m 85.619294,-58.83165 c 21.30293,-10.1631 24.20655,-43.32373 5.11931,-58.46541 -13.26465,-10.5228 -31.166777,-6.5935 -40.751461,8.94441 -3.85347,6.24684 -4.404767,8.57316 -4.404767,18.5868 0,10.0137 0.551297,12.34002 4.404767,18.58694 8.172348,13.24827 22.984581,18.38107 35.632151,12.34726 z m 127.34327,-0.58366 c 23.06622,-12.19359 23.06622,-48.50742 0,-60.70101 -11.6071,-6.13593 -25.13916,-2.52705 -34.06924,9.08598 -4.29651,5.5873 -7.75947,15.07741 -7.75947,21.26449 0,10.78271 9.37581,26.73695 18.33677,31.20259 6.29197,3.13549 16.66011,2.75953 23.49194,-0.85205 z"
       id="path4158"
       inkscape:connector-curvature="0"
       sodipodi:nodetypes="ccccccssscscsssssssccssssssssssss"
       inkscape:export-xdpi="90"
       inkscape:export-ydpi="90" />
    <text
       xml:space="preserve"
       style="font-style:normal;font-weight:normal;font-size:91.10585785px;line-height:125%;font-family:sans-serif;letter-spacing:0px;word-spacing:0px;fill:#ff5252;fill-opacity:1;stroke:none;stroke-width:1px;stroke-linecap:butt;stroke-linejoin:miter;stroke-opacity:1"
       x="296.94666"
       y="328.69742"
       id="text4160"
       sodipodi:linespacing="125%"
       transform="scale(1.0559545,0.94701047)"
       inkscape:export-xdpi="90"
       inkscape:export-ydpi="90"><tspan
         sodipodi:role="line"
         x="296.94666"
         y="328.69742"
         style="font-style:normal;font-variant:normal;font-weight:normal;font-stretch:normal;font-family:'Franklin Gothic Medium';-inkscape-font-specification:'Franklin Gothic Medium, ';text-align:start;text-anchor:start;fill:#ff5252;fill-opacity:1"
         id="tspan4170">Alusor</tspan><tspan
         sodipodi:role="line"
         x="296.94666"
         y="440.78717"
         style="font-style:normal;font-variant:normal;font-weight:normal;font-stretch:normal;font-family:'Franklin Gothic Medium';-inkscape-font-specification:'Franklin Gothic Medium, ';text-align:start;text-anchor:start;fill:#ff5252;fill-opacity:1"
         id="tspan4181"> VR</tspan></text>
  </g>
</svg>
